<svg width="1561" height="702" viewBox="0 0 1561 702" fill="none" xmlns="http://www.w3.org/2000/svg">
<mask id="mask0" mask-type="alpha" maskUnits="userSpaceOnUse" x="0" y="151" width="1561" height="510">
<rect x="0.890625" y="151.679" width="1559.76" height="508.842" fill="#C4C4C4"/>
</mask>
<g mask="url(#mask0)">
<circle cx="775.59" cy="879.58" r="696.377" fill="#FFF1F4"/>
</g>
<path d="M265.397 307.388C263.696 349.924 314.313 349.215 339.835 343.543H366.881C375.771 356.523 406.111 343.543 403.533 330.988C422.411 339.021 437.157 314.188 428.637 302.899C445.624 292.315 439.979 270.089 428.637 265.215C446.31 269.232 459.712 248.423 455.13 236.295C477.635 229.019 484.372 199.777 474.828 185.887C487.279 169.017 472.987 155.093 464.284 150.239C479.547 138.993 470.644 123.127 464.284 116.6C465.891 96.9183 448.218 94.341 439.18 95.5125C429.139 72.2161 411.231 83.7973 403.533 92.5C387.868 83.2618 377.257 98.6923 373.91 107.562C373.91 91.8975 354.496 90.9938 344.789 92.5C328.723 68.4002 311.652 82.4584 305.125 92.5C277.358 75.2285 259.079 95.3451 253.411 107.562C246.884 105.052 224.793 114.592 222.282 138.691C220.274 157.971 233.83 170.155 240.859 173.837C221.229 191.912 229.333 213.836 235.838 222.539C222.282 234.747 228.482 259.292 247.386 265.215C230.918 287.307 252.532 302.535 265.397 307.388Z" fill="#F3A6A6"/>
<ellipse rx="4.852" ry="5.2324" transform="matrix(1 0 0 -1 372.11 287.595)" fill="#F8C8C8"/>
<ellipse rx="3.52831" ry="3.80493" transform="matrix(1 0 0 -1 786.77 353.87)" fill="#F8C8C8"/>
<path d="M366.862 214.902C368.18 232.855 390.849 238.024 402.019 238.364H415.203C421.356 244.076 432.782 235.983 437.726 231.223C453.107 233.263 456.586 218.472 456.403 210.822C477.937 203.069 469.038 186.85 461.896 179.709C472.883 169.1 462.812 152.847 456.403 146.047C458.6 131.766 446.698 126.155 440.472 125.135C434.759 103.918 416.119 109.154 407.512 114.424C389.494 102.592 377.299 116.635 373.454 125.135C356.315 123.503 348.734 143.837 347.086 154.207C336.978 165.224 342.874 180.559 347.086 186.85C341.373 202.763 357.889 212.182 366.862 214.902Z" fill="#F78B8C"/>
<path d="M709.453 376.686C708.804 405.281 739.511 408.097 754.946 405.931L780.942 401.869C788.741 412.267 811.813 402.952 822.374 396.995C850.969 400.894 847.286 377.498 841.871 365.312C860.718 356.214 849.723 344.19 841.871 339.316C867.217 323.069 856.764 284.346 848.37 267.015C863.967 239.069 841.871 221.793 828.873 216.648C834.072 193.251 807.751 186.319 793.94 185.778C792.316 177.654 783.055 161.569 759.008 162.219C734.962 162.869 737.074 186.319 741.136 197.963C714.49 196.013 712.161 216.648 714.328 227.209C681.833 229.808 687.79 254.829 694.831 267.015C668.185 270.914 673.438 298.427 679.396 311.696C661.848 348.09 692.123 370.187 709.453 376.686Z" fill="#F3A6A6"/>
<path d="M279.844 270.024C283.731 280.326 298.769 275.296 305.803 271.493L317.587 264.941C322.828 267.109 332.448 259.262 336.604 255.068C350.795 250.838 345.607 243.237 341.24 239.965C348.88 233.025 341.88 230.907 337.424 230.715C347.111 219.955 336.45 208.23 329.908 203.712C333.236 190.705 320.176 188.898 313.231 189.621C312.273 180.275 298.72 182.979 292.064 185.499C290.097 182.927 283.326 179.023 271.969 183.978C260.612 188.933 265.06 196.862 268.703 200.208C255.727 204.748 257.646 212.548 260.228 215.88C245.133 223.188 251.643 230.921 256.784 233.874C244.666 240.495 251.206 249.253 255.991 252.804C252.975 269.2 270.636 271.116 279.844 270.024Z" fill="#F78B8C"/>
<path d="M696.99 345.859C697.747 356.955 710.754 360.149 717.164 360.359H724.729C728.259 363.889 734.816 358.888 737.653 355.946C746.479 357.207 748.475 348.066 748.37 343.337C760.726 338.546 755.62 328.522 751.522 324.109C757.826 317.553 752.048 307.508 748.37 303.305C749.631 294.479 742.801 291.012 739.229 290.381C735.951 277.268 725.254 280.505 720.316 283.762C709.977 276.449 702.979 285.128 700.773 290.381C690.938 289.373 686.588 301.939 685.642 308.349C679.842 315.157 683.226 324.635 685.642 328.522C682.364 338.357 691.842 344.178 696.99 345.859Z" fill="#F78B8C"/>
<path d="M786.859 398.078C787.21 403.239 793.262 404.725 796.243 404.823H799.762C801.405 406.465 804.455 404.138 805.775 402.77C809.88 403.356 810.809 399.104 810.76 396.904C816.508 394.676 814.133 390.013 812.227 387.96C815.159 384.91 812.471 380.237 810.76 378.282C811.347 374.176 808.17 372.563 806.508 372.27C804.983 366.17 800.007 367.675 797.71 369.19C792.9 365.788 789.645 369.826 788.618 372.27C784.043 371.8 782.02 377.646 781.58 380.628C778.882 383.795 780.455 388.204 781.58 390.013C780.055 394.588 784.463 397.295 786.859 398.078Z" fill="#F78B8C"/>
<path d="M756.167 302.16C755.542 317.796 774.149 317.536 783.532 315.451H793.474C796.742 320.222 807.896 315.451 806.948 310.835C813.888 313.788 819.309 304.659 816.177 300.509C822.421 296.619 820.346 288.448 816.177 286.656C822.674 288.133 827.6 280.483 825.916 276.025C834.189 273.35 836.666 262.6 833.157 257.494C837.735 251.292 832.48 246.173 829.281 244.389C834.892 240.255 831.619 234.422 829.281 232.023C829.872 224.788 823.375 223.84 820.053 224.271C816.361 215.707 809.778 219.964 806.948 223.163C801.189 219.767 797.289 225.44 796.058 228.701C796.058 222.942 788.921 222.61 785.353 223.163C779.447 214.304 773.171 219.472 770.772 223.163C760.564 216.814 753.845 224.209 751.761 228.701C749.361 227.778 741.24 231.285 740.317 240.144C739.579 247.232 744.563 251.711 747.147 253.064C739.93 259.709 742.909 267.768 745.301 270.968C740.317 275.456 742.597 284.479 749.546 286.656C743.492 294.777 751.438 300.376 756.167 302.16Z" fill="#F78B8C"/>
<ellipse rx="4.852" ry="5.2324" transform="matrix(1 0 0 -1 319.46 238.172)" fill="#F8C8C8"/>
<ellipse rx="3.52831" ry="3.80493" transform="matrix(1 0 0 -1 709.19 353.87)" fill="#F8C8C8"/>
<ellipse rx="2.49067" ry="2.68593" transform="matrix(1 0 0 -1 805.801 389.226)" fill="#F8C8C8"/>
<ellipse rx="3.52831" ry="3.80493" transform="matrix(1 0 0 -1 780.75 334.701)" fill="#F8C8C8"/>
<ellipse cx="795.943" cy="282.37" rx="5.84427" ry="2.859" transform="rotate(140.558 795.943 282.37)" fill="#F8C8C8"/>
<path d="M759.096 394.605V611.113H795.909L781.558 438.281L795.909 399.596L790.917 391.485L781.558 415.195L775.943 341.57L815.251 261.081H807.14L775.943 319.732L770.951 254.218L759.096 265.449V370.271L720.412 296.646L716.668 304.757L759.096 394.605Z" fill="#734841"/>
<path d="M345.541 313.583C337.337 404.081 321.077 586.12 321.674 590.297H363.442L369.809 267.616L385.943 230.277L411.757 194.783H407.609L391.936 212.251L404.843 171.273H395.623L373.497 233.043V171.273L357.363 178.188L347.999 290.312L328.341 255.555L323.783 223.077L321.789 219.658V245.014L302.131 212.251V218.233L345.541 313.583Z" fill="#734841"/>
<path d="M507.861 660.435C614.909 569.692 954.062 442.652 1454.28 660.435H507.861Z" fill="#63B000"/>
<path d="M643.055 586.235C755.163 547.241 909.514 478.189 1263.71 590.297L643.055 586.235Z" fill="#76D200"/>
<path d="M105.897 660.973C172.537 589.371 378.552 489.129 669.497 660.973H105.897Z" fill="#6FC700"/>
<path d="M171.254 611.113C215.318 580.704 374.814 532.296 535.862 597.771L171.254 611.113Z" fill="#8DF902"/>
<path d="M1065.33 271.218C1068.48 317.486 1122.73 330.806 1149.45 331.682H1181C1195.72 346.404 1223.06 325.548 1234.89 313.28C1271.7 318.538 1280.02 280.419 1279.58 260.703C1331.11 240.723 1309.82 198.924 1292.73 180.522C1319.02 153.182 1294.92 111.295 1279.58 93.769C1284.84 56.9647 1256.36 42.5059 1241.47 39.877C1227.79 -14.8037 1183.19 -1.30876 1162.6 12.2738C1119.49 -18.2212 1090.3 17.9697 1081.1 39.877C1040.09 35.6708 1021.95 88.0731 1018.01 114.8C993.825 143.192 1007.93 182.713 1018.01 198.924C1004.34 239.935 1043.86 264.208 1065.33 271.218Z" fill="#F3A6A6"/>
<path d="M1070.36 63.7704C1047.25 52.4408 1034.38 82.9038 1030.84 99.5515L1023.75 115.737C1014.24 117.911 1013.47 139.213 1021.1 140.714C1011.71 150.064 1021.6 164.908 1030.08 162.546C1031.49 175.277 1045.27 177.287 1050.95 171.681C1044.09 181.284 1052.1 194.348 1060.02 194.546C1058.15 209.778 1072.58 220.899 1082.77 218.554C1088.85 230.095 1100.3 224.917 1105.27 220.886C1107.5 232.746 1118.62 231.264 1123.9 229.041C1134.38 234.773 1140.43 224.822 1142.15 219.13C1157.68 218.768 1155.96 205.244 1153.16 198.527C1162.38 191.392 1156.61 181.302 1152.58 177.149C1161.25 180.946 1166.84 169.548 1168.55 163.373C1186.1 159.601 1182.79 145.977 1178.94 139.637C1195.78 127.207 1189.43 111.392 1184.15 105.039C1187.25 101.741 1187.75 86.2084 1175.07 78.8639C1164.92 72.9884 1154.62 78.1472 1150.74 81.4611C1145.87 65.3321 1131.61 64.8669 1125.09 66.6504C1121.88 55.5785 1106.66 53.3386 1098.43 63.2154C1090.51 48.005 1076.42 57.2477 1070.36 63.7704Z" fill="#F78B8C"/>
<path d="M1177.03 205.392C1168.83 218.22 1182.02 227.991 1189.64 231.273L1202.58 236.612C1203.26 243.498 1216.33 245.639 1222.78 245.849C1234.71 255.529 1239.5 243.868 1240.41 236.827C1251.49 237.899 1249.82 229.391 1247.59 225.002C1263.61 224.619 1269.56 204.115 1270.54 193.911C1285.36 185.511 1280.08 171.543 1275.59 165.609C1284.43 156.404 1274.37 145.974 1268.24 141.909C1269.74 137.765 1269.98 127.888 1258.86 121.535C1247.74 115.183 1242.22 126.434 1240.85 132.854C1229.27 124.6 1222.5 133.343 1220.57 138.746C1205.07 130.944 1200.86 143.973 1200.7 151.463C1187.5 145.87 1182.28 159.837 1181.32 167.52C1163.28 179.224 1170.94 197.645 1177.03 205.392Z" fill="#F78B8C"/>
<ellipse rx="7.4375" ry="8.02059" transform="matrix(1 0 0 -1 1181.64 336.746)" fill="#F78A89"/>
<ellipse rx="4.852" ry="5.2324" transform="matrix(1 0 0 -1 1084.14 169.81)" fill="#F8C8C8"/>
<ellipse rx="4.852" ry="5.2324" transform="matrix(1 0 0 -1 1145.81 202.753)" fill="#F8C8C8"/>
<path d="M1148 244.315L1154.72 660.973H1204.76L1174.87 297.452L1227.86 155.651H1218.33L1172.12 256.496L1162.59 118.246L1148 102.111V206.257L1074.65 114.294L1070.17 121.298L1094.96 162.059L1069.27 153.111V160.791L1104.8 179.992L1148 244.315Z" fill="#734841"/>
<path opacity="0.2" fill-rule="evenodd" clip-rule="evenodd" d="M623.959 272.966C570.037 287.234 499.014 297.43 450.05 302.452L449.948 301.457C498.89 296.437 569.854 286.248 623.704 271.999C650.641 264.871 673.237 256.741 686.657 247.766C693.373 243.274 697.712 238.623 699.211 233.853C700.693 229.135 699.432 224.178 694.645 218.947L695.383 218.272C700.336 223.685 701.783 229.001 700.165 234.152C698.563 239.251 693.992 244.064 687.213 248.597C673.644 257.672 650.907 265.835 623.959 272.966Z" fill="black"/>
<path opacity="0.2" fill-rule="evenodd" clip-rule="evenodd" d="M669.751 236.232C669.949 236.424 669.953 236.741 669.761 236.939C666.93 239.853 662.23 242.647 656.098 245.325C649.954 248.007 642.326 250.591 633.599 253.065C616.143 258.014 594.245 262.536 570.925 266.532C524.284 274.523 471.913 280.414 437.919 283.394C437.644 283.418 437.402 283.215 437.377 282.939C437.353 282.664 437.557 282.422 437.832 282.398C471.807 279.42 524.15 273.532 570.756 265.546C594.061 261.553 615.919 257.038 633.326 252.103C642.03 249.635 649.61 247.066 655.697 244.408C661.796 241.746 666.35 239.014 669.044 236.242C669.236 236.044 669.553 236.039 669.751 236.232Z" fill="black"/>
<path opacity="0.2" fill-rule="evenodd" clip-rule="evenodd" d="M894.018 491.926C878.55 493.448 862.809 494.997 846.774 496.642L846.672 495.647C862.704 494.003 878.438 492.454 893.898 490.932C1038.41 476.707 1158.87 464.849 1272.76 399.599L1273.26 400.467C1159.17 465.829 1038.49 477.706 894.018 491.926Z" fill="black"/>
<path opacity="0.2" fill-rule="evenodd" clip-rule="evenodd" d="M1218.81 385.171C1218.95 385.41 1218.87 385.716 1218.63 385.854C1205.64 393.37 1181.81 401.395 1151.61 409.362C1121.4 417.334 1084.77 425.26 1046.17 432.566C968.961 447.177 883.817 459.311 826.229 464.359C825.954 464.383 825.712 464.179 825.687 463.904C825.663 463.629 825.867 463.386 826.142 463.362C883.69 458.318 968.799 446.19 1045.98 431.584C1084.57 424.28 1121.18 416.359 1151.36 408.396C1181.56 400.427 1205.27 392.43 1218.13 384.989C1218.37 384.85 1218.68 384.932 1218.81 385.171Z" fill="black"/>
<path d="M170.485 694.345L143.875 679.283H274.416C259.554 679.283 198.936 689.324 170.485 694.345Z" fill="#FFCF25"/>
<path d="M183.54 701.876C189.163 701.475 397.76 701.709 501.355 701.876C435.918 692.002 280.742 678.178 183.54 701.876Z" fill="#F2BD00"/>
<path d="M556.584 700.37L434.579 676.27L795.573 679.785L626.373 700.37H556.584Z" fill="#FFCF25"/>
<path d="M1416.3 701.425H708.614H694.646C998.149 665.648 1302.21 686.518 1416.3 701.425Z" fill="#F2BD00"/>
<path d="M1379.99 674.764L1059.17 671.25C1134.68 676.873 1315.89 683.969 1397.06 686.814L1379.99 674.764Z" fill="#FFCF25"/>
<path d="M1287.22 450.108C1288.73 447.629 1286.89 441.529 1285.63 439.777C1284.83 439.216 1284.58 438.767 1283.93 438.559C1283.34 438.366 1282.4 438.378 1280.39 438.698C1276.2 439.365 1275.58 432.313 1275.8 428.704C1274.97 428.732 1273.51 428.454 1274.31 427.122C1275.11 425.789 1275.63 422.426 1275.8 420.911C1275.26 420.48 1275.03 414.533 1274.99 411.613H1291.16C1292.88 422.286 1299.5 426.47 1302.65 427.368C1302.57 427.516 1302.49 427.663 1302.4 427.809C1300.53 431.367 1300.05 436.118 1300.05 440.565C1295.09 441.104 1288.84 447.548 1287.22 450.108Z" fill="#EFAC78"/>
<path fill-rule="evenodd" clip-rule="evenodd" d="M1284.18 544.012L1258.07 594.672C1257.07 597.852 1256.77 605.819 1263.59 612.245C1269.24 617.557 1288.3 636.039 1301.74 649.095L1303.37 670.704H1315.84V651.201L1323.43 645.141L1315.84 637.655V563.458C1315.84 563.45 1315.85 563.443 1315.86 563.436L1316.09 537.458L1284.18 544.012ZM1294.99 583.685C1288.62 589.944 1282.87 595.824 1281.23 598.285C1278.28 602.718 1279.23 602.923 1280.27 603.148C1280.63 603.225 1281.01 603.305 1281.23 603.56L1299.73 621.787C1299.76 610.492 1297.07 593.559 1294.99 583.685Z" fill="#1E1C68"/>
<path d="M1291.89 677.934C1295.87 677.176 1301.45 672.798 1303.74 670.704H1316.43V682.557H1312.16V678.645C1311.5 679.973 1306.27 681.806 1303.74 682.557H1291.89V677.934Z" fill="#5B2C1C"/>
<path fill-rule="evenodd" clip-rule="evenodd" d="M1275.07 471.284C1279.49 461.12 1290.42 440.714 1298.86 440.407C1307.29 440.101 1310.68 440.28 1311.32 440.407C1315.57 445.117 1323.27 454.255 1326.51 460.062C1326.56 460.031 1326.61 460 1326.66 459.969C1330.69 464.124 1338.4 477.498 1337.02 497.75C1335.29 523.065 1321.49 533.612 1320.14 533.229C1320.04 533.2 1319.85 533.165 1319.57 533.115C1316.16 532.496 1300.2 529.603 1293.1 508.489C1293.03 508.279 1292.96 508.067 1292.9 507.856C1287.01 501.047 1281.1 493.554 1277.18 488.352L1281.79 487.404C1284.54 489.355 1289.06 492.28 1293.71 494.718C1297.88 483.282 1309.8 472.069 1319.71 464.722C1317.29 457.422 1314.18 449.421 1311.32 449.421C1307.33 449.421 1286.68 465.001 1278.5 472.289L1275.07 471.284Z" fill="#232323"/>
<path d="M1304.47 484.479L1302.46 480.993L1322.1 473.58L1322.72 477.175L1304.47 484.479Z" fill="#C4C4C4"/>
<g style="mix-blend-mode:overlay" opacity="0.5">
<path d="M1298.81 554.118C1295.17 552.381 1283.75 553.955 1278.5 554.959C1280.96 547.731 1304.36 549.192 1315.76 550.826C1311.63 552.647 1302.45 555.855 1298.81 554.118Z" fill="black"/>
</g>
<path d="M1279.06 541.732V490.943L1295.07 508.907C1299.53 526.012 1311.33 530.05 1317.54 531.95C1318.16 535.039 1319.03 548.503 1317.54 549.928C1315.68 551.71 1302.02 555.63 1296.13 552.423C1291.41 549.857 1281.54 553.492 1277.2 555.63L1279.06 541.732Z" fill="#ED0000"/>
<path d="M1281.54 447.503L1287.75 449.054L1282.22 457.133L1281.54 447.503Z" fill="#ED0000"/>
<path d="M1277.67 474.541C1279.52 465.568 1299.89 448.186 1305.13 448.123C1314.81 446.385 1315.78 450.502 1315.05 452.778C1319.03 455.26 1321.26 467.672 1321.88 473.568L1302.95 481.326C1303.68 483.394 1309.27 489.56 1307.54 490.305C1305.37 491.236 1276.54 480.019 1277.67 474.541Z" fill="#ED0000"/>
<g style="mix-blend-mode:overlay">
<path d="M1293.96 513.08L1279.22 490.981L1295.03 508.898C1298.9 522.158 1303.79 527.229 1317.3 532.118C1302.43 529.761 1295.54 518.444 1293.96 513.08Z" fill="black"/>
</g>
<path d="M1308.98 655.435L1323.42 645.192L1329.31 652.209L1324.55 655.999L1322.61 653.983C1320.35 658.177 1316.4 661.807 1314.71 663.097L1300.75 671.566L1299.7 669.872C1305.51 664.839 1308.31 658.15 1308.98 655.435Z" fill="#5B2C1C"/>
<path d="M1274.98 402.032C1267.51 404.564 1271.87 408.522 1274.98 411.464C1277.18 413.063 1286.55 412.131 1290.97 411.464C1291.91 422.845 1299.33 427.544 1302.71 427.372C1305.88 409.972 1301.25 406.751 1300.68 403.777C1292.22 396.048 1280.11 398.812 1274.98 402.032Z" fill="#442103"/>
<ellipse cx="261.199" cy="151.286" rx="7.42069" ry="2.85412" transform="rotate(-44.1227 261.199 151.286)" fill="#F98A88"/>
<ellipse cx="706.116" cy="254.748" rx="5.39622" ry="2.07548" transform="rotate(-44.1227 706.116 254.748)" fill="#F98A88"/>
<ellipse cx="827.112" cy="361.343" rx="5.39622" ry="2.07548" transform="rotate(-44.1227 827.112 361.343)" fill="#F98A88"/>
<ellipse cx="265.425" cy="125.717" rx="7.70609" ry="3.99574" transform="rotate(-44.1227 265.425 125.717)" fill="#F98A88"/>
<ellipse cx="709.19" cy="236.155" rx="5.60376" ry="2.90565" transform="rotate(-44.1227 709.19 236.155)" fill="#F98A88"/>
<ellipse cx="830.185" cy="342.75" rx="5.60376" ry="2.90565" transform="rotate(-44.1227 830.185 342.75)" fill="#F98A88"/>
<ellipse rx="4.852" ry="5.2324" transform="matrix(1 0 0 -1 304.687 164.194)" fill="#F8C8C8"/>
<ellipse rx="4.852" ry="5.2324" transform="matrix(1 0 0 -1 346.357 142.23)" fill="#F8C8C8"/>
<ellipse rx="3.52831" ry="3.80493" transform="matrix(1 0 0 -1 762.432 226.223)" fill="#F8C8C8"/>
<ellipse rx="7.4375" ry="8.02059" transform="matrix(1 0 0 -1 424.618 320.46)" fill="#F78A89"/>
<ellipse rx="9.88608" ry="10.6611" transform="matrix(1 0 0 -1 400.734 341.642)" fill="#F78A89"/>
<ellipse rx="9.88608" ry="10.6611" transform="matrix(1 0 0 -1 1087.22 315.753)" fill="#F78A89"/>
<ellipse cx="293.208" cy="202.607" rx="8.03682" ry="3.93159" transform="rotate(58.8622 293.208 202.607)" fill="#F8C8C8"/>
<ellipse cx="729.393" cy="292.069" rx="5.84427" ry="2.859" transform="rotate(58.8622 729.393 292.069)" fill="#F8C8C8"/>
<ellipse cx="850.507" cy="298.856" rx="5.84427" ry="2.859" transform="rotate(99.4918 850.507 298.856)" fill="#F8C8C8"/>
<ellipse cx="299.835" cy="109.737" rx="3.71673" ry="1.81821" transform="rotate(18.643 299.835 109.737)" fill="#F8C8C8"/>
<ellipse cx="793.203" cy="379.376" rx="2.70275" ry="1.32218" transform="rotate(41.1563 793.203 379.376)" fill="#F8C8C8"/>
<ellipse cx="456.086" cy="142.229" rx="8.03682" ry="3.93159" transform="rotate(140.558 456.086 142.229)" fill="#F8C8C8"/>
<ellipse cx="834.951" cy="247.997" rx="5.84427" ry="2.859" transform="rotate(140.558 834.951 247.997)" fill="#F8C8C8"/>
<ellipse cx="322.635" cy="308.469" rx="7.98492" ry="3.93159" transform="rotate(79.031 322.635 308.469)" fill="#F8C8C8"/>
<ellipse cx="753.714" cy="177.809" rx="5.80653" ry="2.859" transform="rotate(79.031 753.714 177.809)" fill="#F8C8C8"/>
<ellipse cx="431.985" cy="195.239" rx="5.99416" ry="3.93159" transform="rotate(77.8921 431.985 195.239)" fill="#F8C8C8"/>
<ellipse cx="818.083" cy="295.731" rx="4.35887" ry="2.859" transform="rotate(77.8921 818.083 295.731)" fill="#F8C8C8"/>
<circle r="3.2668" transform="matrix(1 0 0 -1 411.758 112.648)" fill="#F8C8C8"/>
<circle r="2.37557" transform="matrix(1 0 0 -1 815.601 226.651)" fill="#F8C8C8"/>
<circle cx="329.032" cy="204.284" r="3.9109" fill="#F8C8C8"/>
<ellipse cx="1211.91" cy="312.307" rx="7.42069" ry="2.85412" transform="rotate(-44.1227 1211.91 312.307)" fill="#F98A88"/>
<ellipse cx="1235.21" cy="51.7356" rx="7.42069" ry="2.85412" transform="rotate(50.011 1235.21 51.7356)" fill="#F98A88"/>
<ellipse cx="1131.71" cy="308.765" rx="7.70609" ry="3.99574" transform="rotate(26.205 1131.71 308.765)" fill="#F98A88"/>
<ellipse cx="1179.6" cy="15.0369" rx="7.70609" ry="3.99574" transform="rotate(5.13173 1179.6 15.0369)" fill="#F98A88"/>
<ellipse rx="4.852" ry="5.2324" transform="matrix(1 0 0 -1 1054.33 115.083)" fill="#F8C8C8"/>
<ellipse rx="4.852" ry="5.2324" transform="matrix(1 0 0 -1 1118.97 85.1691)" fill="#F8C8C8"/>
<ellipse cx="1267.77" cy="199.074" rx="8.03682" ry="3.93159" transform="rotate(107.591 1267.77 199.074)" fill="#F8C8C8"/>
<ellipse cx="1260.24" cy="280.247" rx="8.03682" ry="3.93159" transform="rotate(107.591 1260.24 280.247)" fill="#F8C8C8"/>
<ellipse cx="1072.45" cy="52.6761" rx="3.71673" ry="1.81821" transform="rotate(18.643 1072.45 52.6761)" fill="#F8C8C8"/>
<ellipse cx="1228.7" cy="85.1687" rx="8.03682" ry="3.93159" transform="rotate(140.558 1228.7 85.1687)" fill="#F8C8C8"/>
<ellipse cx="1084.49" cy="273.774" rx="7.98492" ry="3.93159" transform="rotate(79.031 1084.49 273.774)" fill="#F8C8C8"/>
<ellipse cx="1204.6" cy="138.178" rx="5.99416" ry="3.93159" transform="rotate(77.8921 1204.6 138.178)" fill="#F8C8C8"/>
<ellipse cx="1028.84" cy="214.671" rx="5.99416" ry="3.93159" transform="rotate(77.8921 1028.84 214.671)" fill="#F8C8C8"/>
<circle r="3.2668" transform="matrix(1 0 0 -1 1184.37 55.5868)" fill="#F8C8C8"/>
<circle cx="1233.49" cy="240.846" r="3.9109" fill="#F8C8C8"/>
<circle cx="789.614" cy="195.352" r="2.84395" fill="#F8C8C8"/>
<g style="mix-blend-mode:overlay">
<path d="M1295.38 466.654L1302.8 481.236L1308.51 489.906L1306.67 491.943L1305.29 489.906L1295.38 466.654Z" fill="black"/>
</g>
<path d="M1306.47 490.305C1308.87 490.305 1305.19 485.725 1304.77 484.162L1322.61 477.054C1323.75 487.213 1325.43 494.572 1323.35 497.891C1319.09 500.367 1316.44 501.016 1311.11 500.561C1303.51 499.431 1287.33 492.918 1279.03 488.328H1271.26C1266.4 482.116 1269.23 475.044 1271.26 472.285C1273.91 470.39 1275.71 470.886 1279.03 472.285V475.801C1282.54 480.313 1300.12 487.839 1306.47 490.305Z" fill="#FE9D6E"/>
<g style="mix-blend-mode:overlay" opacity="0.5">
<path d="M1294.75 583.567C1301.59 576.919 1315.42 563.509 1316.05 563.056V571.149L1295.76 588.484C1295.31 585.945 1294.86 583.87 1294.75 583.567Z" fill="#0B0B0B"/>
</g>
<path d="M1276.89 437.476C1272.51 430.045 1273.45 428.416 1275.02 425.381C1277.78 423.924 1280.95 424.774 1281.61 425.381C1280.66 426.169 1282.93 434.744 1283.62 438.485C1281.96 440.083 1277.54 438.538 1276.89 437.476Z" fill="#089B16"/>
<path d="M1280.32 425.127C1280.07 425.234 1279.95 425.527 1280.05 425.781C1280.16 426.036 1280.45 426.156 1280.71 426.05L1280.32 425.127ZM1293.38 421.009C1293.65 421.009 1293.88 420.785 1293.88 420.509C1293.88 420.233 1293.65 420.009 1293.38 420.009L1293.38 421.009ZM1280.71 426.05C1282.67 425.227 1285.64 423.96 1288.25 422.896C1289.55 422.364 1290.76 421.886 1291.69 421.541C1292.16 421.368 1292.56 421.231 1292.86 421.138C1293.01 421.091 1293.14 421.057 1293.23 421.035C1293.34 421.011 1293.38 421.009 1293.38 421.009L1293.38 420.009C1293.26 420.009 1293.13 420.033 1293.01 420.06C1292.88 420.09 1292.73 420.131 1292.57 420.182C1292.24 420.283 1291.82 420.427 1291.35 420.603C1290.4 420.954 1289.18 421.437 1287.87 421.97C1285.26 423.036 1282.28 424.309 1280.32 425.127L1280.71 426.05Z" fill="white"/>
<path d="M1282.42 438.489C1288.13 435.805 1297.07 427.409 1296.74 424.553" stroke="white" stroke-linecap="round" stroke-linejoin="round"/>
<path d="M1283.82 438.531C1293.84 436.422 1300.66 429.364 1302.93 426.556C1300.65 429.955 1300.12 437.212 1300.24 440.093C1296.55 439.8 1290.06 445.831 1287.27 448.883C1286.91 441.484 1284.73 439.107 1283.82 438.531Z" fill="#E7A878"/>
<path d="M439.77 579.567C439.77 579.567 456.593 594.981 462.329 595.354C468.064 595.727 526.945 612.881 526.945 612.881L529.749 602.439C529.749 602.439 512.798 593.489 498.142 584.291C493.044 581.059 478.387 579.443 471.76 574.719C466.025 570.742 459.27 555.079 457.995 554.831C456.721 554.458 439.898 579.567 439.898 579.567H439.77Z" fill="#9B5A35"/>
<path d="M387.403 551.352C387.403 551.352 371.599 584.914 370.07 593.491C368.541 602.068 370.198 608.656 369.305 620.465C368.286 632.398 362.423 666.706 362.423 666.706L373.001 669.938C373.001 669.938 391.864 630.409 392.374 620.216C392.883 610.023 389.06 602.441 392.246 596.723C395.432 591.005 417.481 570.122 417.481 570.122L387.531 551.352H387.403Z" fill="#9B5A35"/>
<path d="M449.441 535.935C449.441 535.935 450.843 541.778 451.608 543.642C452.373 545.382 465.627 558.31 467.029 559.056L440.01 583.544C440.01 583.544 424.971 569.622 423.442 564.525C421.912 559.429 449.441 536.06 449.441 536.06V535.935Z" fill="black"/>
<path d="M401.54 528.351C401.54 528.351 401.157 531.335 398.736 533.075C396.314 534.815 384.844 549.359 384.844 549.359L418.108 574.966C418.108 574.966 444.107 556.444 448.186 543.889C450.862 535.561 449.333 527.854 446.911 521.39C444.362 514.926 401.667 528.351 401.667 528.351H401.54Z" fill="#121212"/>
<path d="M431.483 442.955C431.483 442.955 457.228 476.144 453.532 482.981C449.836 489.818 438.493 492.801 438.493 492.801L431.355 442.955H431.483Z" fill="#8E502D"/>
<path d="M419.137 409.397C419.137 409.397 417.863 421.579 420.922 425.556C423.98 429.41 402.569 434.879 402.569 434.879C402.569 434.879 405.118 424.313 402.187 419.963C399.765 416.233 419.137 409.397 419.137 409.397Z" fill="#8E502D"/>
<path d="M393.259 380.932C393.259 380.932 389.436 385.78 390.838 397.465C390.838 397.465 387.907 405.545 386.377 407.036C384.848 408.528 390.073 409.522 390.583 410.765C391.093 412.008 391.73 417.478 395.299 420.958C398.74 424.439 417.984 415.862 419.259 410.268C420.533 404.799 436.464 379.441 416.328 376.955C396.191 374.469 393.387 380.808 393.387 380.808L393.259 380.932Z" fill="#9B5A35"/>
<path d="M421.811 425.06C421.811 425.06 425.124 431.896 429.33 438.857C433.408 445.943 437.614 454.768 437.869 470.555C438.124 486.342 437.742 506.106 446.918 521.271C446.918 521.271 421.683 529.351 401.674 528.232C401.674 528.232 395.684 503.869 395.046 495.416C393.899 477.64 383.576 478.759 387.399 466.577C391.223 454.395 399.38 440.1 400.909 435.625L421.811 424.935V425.06Z" fill="#5200FF"/>
<path d="M407.286 456.509C407.286 456.509 415.315 495.789 412.001 497.654C407.541 500.264 377.718 501.01 377.718 501.01L378.482 510.457C378.482 510.457 426.786 517.418 428.57 503.372C430.227 489.325 426.531 453.401 426.531 453.401L407.286 456.633V456.509Z" fill="#9B5A35"/>
<path d="M362.288 666.707L361.396 669.69L372.229 672.798L372.867 669.939L362.288 666.707Z" fill="#E2D9D4"/>
<path d="M372.242 672.794C372.242 672.794 363.193 668.816 362.938 668.443C362.684 668.07 361.536 663.968 359.88 664.341C358.223 664.59 357.203 669.065 355.546 669.438C353.89 669.81 340.89 674.658 339.233 675.777C337.576 676.772 329.164 674.037 327.635 676.15C326.106 678.263 324.704 683.857 337.704 685.349C350.703 686.965 364.723 692.31 367.909 691.439C370.968 690.569 372.242 676.399 372.242 672.669V672.794Z" fill="#121212"/>
<path d="M526.942 612.878L530 613.624L532.677 602.934L529.745 602.437L526.942 612.878Z" fill="#E2D9D4"/>
<path d="M532.7 602.937C532.7 602.937 529.131 611.887 528.876 612.259C528.494 612.508 524.415 613.875 524.798 615.491C525.18 616.983 529.768 617.853 530.278 619.345C530.788 620.836 536.523 633.267 537.67 634.883C538.817 636.499 536.523 644.703 538.69 646.195C540.984 647.562 546.719 648.681 547.611 635.877C548.503 623.074 553.219 609.152 552.199 606.169C551.18 603.185 536.65 602.812 532.7 603.061V602.937Z" fill="black"/>
<path d="M391.484 385.407C391.484 385.407 403.082 393.984 411.238 399.329C419.395 404.798 419.013 412.629 419.013 412.629C419.013 412.629 432.267 394.978 426.915 383.418C420.925 370.614 393.523 371.857 391.484 385.282V385.407Z" fill="#302F35"/>
<path d="M428.198 389.009C428.198 389.009 445.021 384.659 447.825 396.592C450.629 408.401 437.884 419.34 430.364 414.865C422.845 410.39 420.423 405.045 420.806 403.056C421.188 401.067 428.198 389.134 428.198 389.134V389.009Z" fill="#302F35"/>
<path d="M400.88 435.871C400.88 435.871 400.115 430.65 399.223 429.158L420.762 419.587L421.782 425.181C421.782 425.181 408.654 433.758 400.88 435.871Z" fill="#470ACA"/>
<path d="M428.195 461.974L407.676 464.336C407.676 464.336 401.304 446.685 415.705 443.826C415.705 443.826 430.107 442.458 428.195 461.974Z" fill="#470ACA"/>
<path d="M393.48 402.452L411.064 398.712M400.932 421.082L415.538 402.813" stroke="#C4C4C4" stroke-linecap="round" stroke-linejoin="round"/>
<path d="M393.421 420.261C382 410.608 385.593 404.891 388.744 403.349L393.57 401.942C392.444 404.194 398.329 415.884 401.412 421.447C397.873 422.573 394.561 421.199 393.421 420.261Z" fill="#C4C4C4"/>
<path d="M412.354 395.595C413.629 393.233 418.344 394.227 417.962 397.832C417.58 401.312 414.011 405.042 412.609 403.426C411.335 401.81 410.442 399.075 412.354 395.595Z" fill="#9B5A35"/>
<path d="M358.83 500.759C358.83 500.759 357.428 502.624 358.702 504.116C359.977 505.607 359.339 506.602 360.869 507.347C362.398 508.093 361.379 510.331 363.035 510.579C364.565 510.828 368.133 509.461 370.045 509.461C370.173 509.461 370.3 509.461 370.428 509.461C370.555 509.461 370.682 509.461 370.81 509.461C372.339 509.834 378.074 510.579 379.349 510.331C380.751 510.082 381.898 500.759 381.898 500.759C381.898 500.759 378.712 501.132 374.888 499.641C371.447 498.273 366.986 494.171 364.565 494.047C364.31 494.047 364.055 494.047 363.928 494.171C361.761 494.917 357.555 498.025 357.555 498.77C357.555 499.516 358.83 500.759 358.83 500.759Z" fill="#9B5A35"/>
<path d="M358.848 500.756C358.848 500.756 357.446 502.621 358.721 504.113C359.995 505.604 359.358 506.599 360.887 507.344C362.417 508.09 361.397 510.328 363.054 510.576C364.583 510.825 368.152 509.458 370.063 509.458C369.044 509.458 366.367 509.333 366.113 508.96C363.181 504.61 364.456 494.541 364.456 494.541L364.583 494.168C364.328 494.168 364.073 494.168 363.946 494.293C361.779 495.038 357.573 498.146 357.573 498.892C357.573 499.638 358.848 500.881 358.848 500.881V500.756Z" fill="#8E502D"/>
</svg>
