<svg width="303" height="234" viewBox="0 0 303 234" fill="none" xmlns="http://www.w3.org/2000/svg">
<path d="M243.637 174.509C220.169 204.377 184.434 220.023 169.5 224.112C171.352 228.405 206.868 236.783 216.128 231.881C225.389 226.978 228.424 219.352 238.929 208.38C247.334 199.602 256.438 192.945 259.94 190.715C270.861 185.313 293.947 174.217 298.927 173.05C303.908 171.882 302.3 167.739 300.873 165.813C294.71 157.097 278.02 148.952 270.446 145.969C266.897 143.914 263.987 146.825 262.975 148.537C256.252 158.311 247.281 169.924 243.637 174.509Z" fill="#F78B8C"/>
<path d="M55.8938 168.643C75.9483 188.697 83.0952 189.799 84.1618 187.843C82.7882 174.411 89.4349 167.502 92.93 165.727L84.1618 151.575C79.1837 143.397 67.414 123.413 60.1603 108.906C52.9066 94.3986 43.9817 95.7497 40.426 98.2387C33.4923 99.3054 9.49121 120.106 3.09087 130.24C-2.02939 138.347 2.73533 140.73 5.75772 140.908C29.759 145.175 50.56 165.976 55.8938 168.643Z" fill="#F78B8C"/>
<path d="M95.0992 144.319C89.034 121.376 96.0881 105.971 100.373 101.136C103.67 105.751 128.722 118.936 137.293 121.903C145.863 124.87 167.949 144.319 163.334 144.319C159.642 144.319 139.82 155.306 130.37 160.8C121.14 164.866 101.164 167.261 95.0992 144.319Z" fill="#F78B8C"/>
<path d="M48.2906 75.0944C55.4108 80.896 78.2877 125.639 88.8361 147.285C82.9027 109.047 70.706 85.9723 64.1133 80.0388C57.5205 74.1054 55.8723 61.9088 56.5316 54.9864C57.1909 48.064 64.4429 49.7122 64.1133 57.6235C63.8496 63.9525 70.1566 75.2042 73.3431 80.0388C85.2101 94.5429 88.6164 106.3 88.8361 110.366C94.9015 98.2348 92.6819 85.0933 90.8139 80.0388C87.6274 76.9622 81.2544 67.6445 81.2544 54.9864C81.2544 42.3283 90.2645 31.692 94.7696 27.9561C91.6051 25.0553 84.4409 26.7474 81.2544 27.9561C72.2883 32.7029 62.3552 33.8896 58.5094 33.8896C79.2766 24.6597 77.6284 15.4299 94.7696 15.4299C108.483 15.4299 120.042 21.5831 124.107 24.6597C131.03 25.0992 144.677 24.396 143.886 18.0671C143.094 11.7382 130.37 6.20015 124.107 4.22224C102.681 3.23336 56.4657 4.6179 43.0165 18.0671C26.205 34.8786 39.3905 67.8424 48.2906 75.0944Z" fill="#F78B8C"/>
<path d="M109.23 208.644C92.5891 197.124 94.1179 181.087 96.9623 174.509C116.59 171.949 138.565 162.775 147.098 158.508C163.739 152.962 191.723 133.796 203.635 124.907C241.183 97.5988 274.394 104.639 286.306 111.573C227.423 119.68 206.657 134.507 203.635 140.908C228.383 129.387 255.904 125.44 266.571 124.907C262.304 132.907 247.904 154.668 224.436 177.71C200.968 200.751 169.5 214.689 156.699 218.778C147.81 220.201 125.871 220.165 109.23 208.644Z" fill="#F78B8C"/>
<path d="M150.832 10.7672C151.686 6.07353 160.433 3.12249 164.7 2.23368C166.166 1.63506 172.928 0.478567 188.248 0.64155C203.568 0.804533 221.524 17.4152 228.586 25.7002C233 30.7934 245.781 45.4212 261.59 63.1863C277.4 80.9515 263.967 94.3568 255.275 98.8389C237.836 99.0019 226.277 102.302 222.678 103.932C221.7 102.628 226.209 93.3382 228.586 88.8561L235.513 64.6124C235.106 58.908 231.194 48.5586 218.807 52.7961C206.421 57.0337 199.62 43.2546 197.768 35.8353C186.567 13.9676 173.233 19.3012 164.7 19.3012C156.166 19.3012 149.765 16.6344 150.832 10.7672Z" fill="#F78B8C"/>
<path d="M171.135 67.0574C187.433 48.8033 164.344 36.2265 150.762 32.2198C169.301 25.4968 181.321 30.9974 189.266 37.9242C195.623 43.4656 186.618 53.1359 181.321 57.2784C192.526 55.2411 201.49 55.4449 199.657 59.3157C198.19 62.4124 180.031 65.7671 171.135 67.0574Z" fill="#F78B8C"/>
<path d="M131 63.1865C128.555 62.5346 116.127 56.1239 110.219 53C116.25 47.2956 116.942 39.486 116.535 36.2943C150.354 36.0905 145.872 37.3128 159.929 43.8322C171.175 49.0476 170.183 56.8708 168.282 60.1305C166.245 62.5073 160.255 67.4647 152.595 68.2796C144.935 69.0945 140.982 65.2237 139.964 63.1865C139.217 61.0813 138.7 56.5448 142.612 55.241C146.524 53.9371 151.576 57.9574 153.613 60.1305C152.595 56.8029 148.439 49.8626 139.964 48.7217C131.488 47.5808 130.456 54.7656 131 58.5007C132.018 60.3342 133.444 63.8384 131 63.1865Z" fill="#F78B8C"/>
<path d="M104.659 91.2468C80.3977 55.646 92.7918 39.4936 102.022 35.8674C111.911 35.8674 107.955 40.4825 104.659 58.9422C101.363 77.4019 138.282 101.795 154.434 118.277C167.356 131.462 167.949 137.616 166.631 139.044C164.653 134.209 156.214 122.496 138.282 114.321C120.349 106.146 108.395 95.5321 104.659 91.2468Z" fill="#F78B8C"/>
<path fill-rule="evenodd" clip-rule="evenodd" d="M111.646 58.7043C126.246 70.3848 167.141 86.9411 213.917 59.723C219.486 57.482 228.953 58.1747 222.27 78.8735C215.588 99.5724 213.917 106.649 213.917 107.599L201.083 114.73C199.385 109.161 198.801 94.194 210.047 78.8735C203.256 82.8123 190.203 93.0938 192.322 102.71C194.441 112.326 194.292 118.397 193.952 120.23L176.024 133.677C166.72 124.916 146.85 106.458 141.797 102.71C135.482 98.0241 111.646 74.7989 111.646 58.7043ZM134.871 84.1705C148.317 87.2943 182.217 88.6525 210.25 69.0946C201.422 78.6019 181.443 97.4944 172.153 97.0055C170.267 96.9062 168.252 96.8983 166.16 96.8901C155.373 96.8478 142.549 96.7976 134.871 84.1705Z" fill="#F78B8C"/>
</svg>
