<svg width="691" height="1081" viewBox="0 0 691 1081" fill="none" xmlns="http://www.w3.org/2000/svg">
<mask id="mask0" mask-type="alpha" maskUnits="userSpaceOnUse" x="0" y="0" width="691" height="1081">
<rect x="1.41699" y="0.696289" width="688.122" height="1079" fill="#C4C4C4" stroke="black"/>
</mask>
<g mask="url(#mask0)">
<path d="M420.124 1076.55C335.935 1183.7 207.738 1239.82 154.163 1254.49C160.808 1269.9 288.219 1299.95 321.44 1282.36C354.661 1264.78 365.549 1237.42 403.236 1198.06C433.386 1166.57 466.049 1142.69 478.611 1134.68C517.788 1115.31 600.608 1075.5 618.474 1071.31C636.341 1067.12 630.572 1052.26 625.454 1045.35C603.344 1014.08 543.471 984.864 516.299 974.162C503.569 966.792 493.128 977.233 489.499 983.375C465.379 1018.44 433.199 1060.1 420.124 1076.55Z" fill="#F78B8C" fill-opacity="0.2"/>
<path d="M-112.741 968.241C-134.499 885.937 -109.194 830.672 -93.8208 813.328C-81.9951 829.884 7.87776 877.185 38.6239 887.828C69.3701 898.471 148.601 968.241 132.045 968.241C118.801 968.241 47.6901 1007.66 13.7905 1027.37C-19.3206 1041.95 -90.9825 1050.55 -112.741 968.241Z" fill="#F78B8C" fill-opacity="0.2"/>
<path d="M-280.663 719.908C-255.12 740.721 -173.051 901.232 -135.209 978.886C-156.495 841.711 -200.249 758.932 -223.9 737.646C-247.551 716.36 -253.464 672.606 -251.099 647.772C-248.734 622.939 -222.718 628.852 -223.9 657.233C-224.846 679.938 -202.22 720.302 -190.789 737.646C-148.217 789.678 -135.998 831.855 -135.209 846.44C-113.45 802.922 -121.413 755.778 -128.114 737.646C-139.545 726.609 -162.408 693.182 -162.408 647.772C-162.408 602.363 -130.085 564.206 -113.924 550.804C-125.276 540.397 -150.977 546.468 -162.408 550.804C-194.573 567.832 -230.207 572.09 -244.004 572.09C-169.503 538.978 -175.416 505.867 -113.924 505.867C-64.7297 505.867 -23.2617 527.941 -8.67703 538.978C16.1564 540.555 65.1138 538.032 62.2757 515.328C59.4376 492.623 13.7914 472.756 -8.67703 465.661C-85.5424 462.113 -251.335 467.08 -299.583 515.328C-359.893 575.638 -312.591 693.892 -280.663 719.908Z" fill="#F78B8C" fill-opacity="0.2"/>
<path d="M-62.0484 1199.01C-121.746 1157.68 -116.261 1100.15 -106.057 1076.55C-35.6451 1067.36 43.1871 1034.45 73.8016 1019.15C133.499 999.248 233.888 930.494 276.62 898.605C411.322 800.64 530.462 825.896 573.195 850.77C361.957 879.853 287.463 933.045 276.62 956.006C365.401 914.677 464.132 900.518 502.4 898.605C487.092 927.305 435.431 1005.37 351.242 1088.03C267.053 1170.69 154.164 1220.69 108.243 1235.36C76.3527 1240.46 -2.35128 1240.34 -62.0484 1199.01Z" fill="#F78B8C" fill-opacity="0.2"/>
<path d="M87.1959 489.139C90.2578 472.301 121.637 461.714 136.944 458.526C142.203 456.378 166.461 452.229 221.422 452.814C276.382 453.399 340.795 512.988 366.132 542.71C381.967 560.981 427.816 613.457 484.531 677.188C541.246 740.919 493.058 789.009 461.874 805.088C399.313 805.673 357.849 817.513 344.937 823.36C341.429 818.682 357.605 785.355 366.132 769.276L390.981 682.304C389.519 661.84 375.487 624.712 331.051 639.914C286.614 655.116 262.217 605.685 255.573 579.069C215.392 500.62 167.557 519.754 136.944 519.754C106.33 519.754 83.3686 510.187 87.1959 489.139Z" fill="#F78B8C" fill-opacity="0.2"/>
<path d="M160.03 691.075C218.499 625.59 135.667 580.472 86.9434 566.098C153.452 541.98 196.572 561.713 225.076 586.562C247.879 606.441 215.575 641.133 196.572 655.994C236.769 648.685 268.927 649.416 262.35 663.302C257.087 674.411 191.944 686.446 160.03 691.075Z" fill="#F78B8C" fill-opacity="0.2"/>
<path d="M16.0482 677.189C7.27791 674.851 -37.3044 651.853 -58.4993 640.646C-36.8656 620.182 -34.381 592.166 -35.8429 580.716C85.4797 579.985 69.4008 584.37 119.83 607.757C160.173 626.467 156.617 654.532 149.795 666.226C142.487 674.753 120.999 692.537 93.5191 695.461C66.0388 698.384 51.8602 684.498 48.2059 677.189C45.5261 669.637 43.6745 653.363 57.707 648.686C71.7395 644.008 89.8648 658.43 97.1734 666.226C93.5191 654.289 78.6096 629.391 48.2059 625.298C17.8021 621.205 14.0992 646.98 16.0482 660.379C19.7024 666.957 24.8184 679.528 16.0482 677.189Z" fill="#F78B8C" fill-opacity="0.2"/>
<path d="M-78.4465 777.853C-165.481 650.139 -121.019 592.193 -87.9077 579.185C-52.4315 579.185 -66.6218 595.741 -78.4465 661.963C-90.2712 728.186 42.1723 815.694 100.117 874.821C146.473 922.123 148.601 944.197 143.871 949.322C136.776 931.978 106.503 889.958 42.1723 860.631C-22.1581 831.304 -65.0446 793.226 -78.4465 777.853Z" fill="#F78B8C" fill-opacity="0.2"/>
<path fill-rule="evenodd" clip-rule="evenodd" d="M-53.3826 661.11C-1.00449 703.012 145.703 762.407 313.509 664.764C333.486 656.725 367.447 659.21 343.474 733.465C319.502 807.72 313.509 833.105 313.509 836.516L267.465 862.096C261.374 842.119 259.279 788.426 299.623 733.465C275.261 747.595 228.437 784.479 236.038 818.975C243.639 853.472 243.103 875.252 241.885 881.829L177.569 930.066C144.193 898.639 72.9102 832.423 54.7849 818.975C32.1283 802.166 -53.3826 718.848 -53.3826 661.11ZM29.9356 752.467C78.172 763.673 199.786 768.546 300.353 698.384C268.683 732.49 197.01 800.265 163.683 798.511C156.916 798.155 149.686 798.127 142.182 798.098C103.486 797.946 57.4819 797.766 29.9356 752.467Z" fill="#F78B8C" fill-opacity="0.2"/>
</g>
</svg>
